<?xml version="1.0" encoding="UTF-8" standalone="no"?>
<!DOCTYPE svg PUBLIC "-//W3C//DTD SVG 1.1//EN"
 "http://www.w3.org/Graphics/SVG/1.1/DTD/svg11.dtd">
<!-- Generated by graphviz version 2.43.0 (0)
 -->
<!-- Title: %3 Pages: 1 -->
<svg width="4987pt" height="210pt"
 viewBox="0.00 0.00 4986.79 210.00" xmlns="http://www.w3.org/2000/svg" xmlns:xlink="http://www.w3.org/1999/xlink">
<g id="graph0" class="graph" transform="scale(1 1) rotate(0) translate(4 206)">
<title>%3</title>
<polygon fill="white" stroke="transparent" points="-4,4 -4,-206 4982.79,-206 4982.79,4 -4,4"/>
<!-- 139907021048320 -->
<g id="node1" class="node">
<title>139907021048320</title>
<polygon fill="none" stroke="black" points="2527.5,-55.5 2527.5,-91.5 3247.5,-91.5 3247.5,-55.5 2527.5,-55.5"/>
<text text-anchor="middle" x="2538" y="-69.8" font-family="Times,serif" font-size="14.00"> </text>
<polyline fill="none" stroke="black" points="2548.5,-55.5 2548.5,-91.5 "/>
<text text-anchor="middle" x="2827.5" y="-69.8" font-family="Times,serif" font-size="14.00">data [[1.180215991689673], [4.688539228544743], [7.823823652438264]]</text>
<polyline fill="none" stroke="black" points="3106.5,-55.5 3106.5,-91.5 "/>
<text text-anchor="middle" x="3177" y="-69.8" font-family="Times,serif" font-size="14.00">grad [[1], [1], [1]]</text>
</g>
<!-- 139907021048512+ -->
<g id="node8" class="node">
<title>139907021048512+</title>
<ellipse fill="none" stroke="black" cx="3331" cy="-100.5" rx="27" ry="18"/>
<text text-anchor="middle" x="3331" y="-96.8" font-family="Times,serif" font-size="14.00">+</text>
</g>
<!-- 139907021048320&#45;&gt;139907021048512+ -->
<g id="edge7" class="edge">
<title>139907021048320&#45;&gt;139907021048512+</title>
<path fill="none" stroke="black" d="M3182.99,-91.51C3227.25,-94.22 3267.05,-96.65 3294.04,-98.3"/>
<polygon fill="black" stroke="black" points="3293.89,-101.8 3304.09,-98.92 3294.32,-94.81 3293.89,-101.8"/>
</g>
<!-- 139907021048320* -->
<g id="node2" class="node">
<title>139907021048320*</title>
<ellipse fill="none" stroke="black" cx="2444" cy="-73.5" rx="27" ry="18"/>
<text text-anchor="middle" x="2444" y="-69.8" font-family="Times,serif" font-size="14.00">*</text>
</g>
<!-- 139907021048320*&#45;&gt;139907021048320 -->
<g id="edge1" class="edge">
<title>139907021048320*&#45;&gt;139907021048320</title>
<path fill="none" stroke="black" d="M2471.3,-73.5C2483.33,-73.5 2498.98,-73.5 2517.13,-73.5"/>
<polygon fill="black" stroke="black" points="2517.16,-77 2527.16,-73.5 2517.16,-70 2517.16,-77"/>
</g>
<!-- 139907021046304 -->
<g id="node3" class="node">
<title>139907021046304</title>
<polygon fill="none" stroke="black" points="1651.5,-165.5 1651.5,-201.5 1953.5,-201.5 1953.5,-165.5 1651.5,-165.5"/>
<text text-anchor="middle" x="1662" y="-179.8" font-family="Times,serif" font-size="14.00"> </text>
<polyline fill="none" stroke="black" points="1672.5,-165.5 1672.5,-201.5 "/>
<text text-anchor="middle" x="1742.5" y="-179.8" font-family="Times,serif" font-size="14.00">data [[0], [0], [0]]</text>
<polyline fill="none" stroke="black" points="1812.5,-165.5 1812.5,-201.5 "/>
<text text-anchor="middle" x="1883" y="-179.8" font-family="Times,serif" font-size="14.00">grad [[1], [1], [1]]</text>
</g>
<!-- 139907021048128+ -->
<g id="node13" class="node">
<title>139907021048128+</title>
<ellipse fill="none" stroke="black" cx="2444" cy="-128.5" rx="27" ry="18"/>
<text text-anchor="middle" x="2444" y="-124.8" font-family="Times,serif" font-size="14.00">+</text>
</g>
<!-- 139907021046304&#45;&gt;139907021048128+ -->
<g id="edge9" class="edge">
<title>139907021046304&#45;&gt;139907021048128+</title>
<path fill="none" stroke="black" d="M1953.72,-191.79C2071.57,-194.64 2238.87,-190.6 2381,-156.5 2392.14,-153.83 2403.74,-149.16 2413.85,-144.39"/>
<polygon fill="black" stroke="black" points="2415.61,-147.43 2423.03,-139.85 2412.51,-141.15 2415.61,-147.43"/>
</g>
<!-- 139907021046352 -->
<g id="node4" class="node">
<title>139907021046352</title>
<polygon fill="none" stroke="black" points="148,-138.5 148,-174.5 950,-174.5 950,-138.5 148,-138.5"/>
<text text-anchor="middle" x="158.5" y="-152.8" font-family="Times,serif" font-size="14.00"> </text>
<polyline fill="none" stroke="black" points="169,-138.5 169,-174.5 "/>
<text text-anchor="middle" x="468.5" y="-152.8" font-family="Times,serif" font-size="14.00">data [[&#45;0.26830328150124894], [0.6487474938152629], [0.8434530197925192]]</text>
<polyline fill="none" stroke="black" points="768,-138.5 768,-174.5 "/>
<text text-anchor="middle" x="859" y="-152.8" font-family="Times,serif" font-size="14.00">grad [[1.0], [4.0], [7.0]]</text>
</g>
<!-- 139907021047936* -->
<g id="node6" class="node">
<title>139907021047936*</title>
<ellipse fill="none" stroke="black" cx="1161" cy="-128.5" rx="27" ry="18"/>
<text text-anchor="middle" x="1161" y="-124.8" font-family="Times,serif" font-size="14.00">*</text>
</g>
<!-- 139907021046352&#45;&gt;139907021047936* -->
<g id="edge8" class="edge">
<title>139907021046352&#45;&gt;139907021047936*</title>
<path fill="none" stroke="black" d="M942.36,-138.49C1017.36,-135.05 1084.66,-131.96 1123.93,-130.16"/>
<polygon fill="black" stroke="black" points="1124.18,-133.65 1134,-129.69 1123.85,-126.66 1124.18,-133.65"/>
</g>
<!-- 139907021047936 -->
<g id="node5" class="node">
<title>139907021047936</title>
<polygon fill="none" stroke="black" points="1422,-110.5 1422,-146.5 2183,-146.5 2183,-110.5 1422,-110.5"/>
<text text-anchor="middle" x="1432.5" y="-124.8" font-family="Times,serif" font-size="14.00"> </text>
<polyline fill="none" stroke="black" points="1443,-110.5 1443,-146.5 "/>
<text text-anchor="middle" x="1742.5" y="-124.8" font-family="Times,serif" font-size="14.00">data [[&#45;0.26830328150124894], [2.5949899752610515], [5.9041711385476345]]</text>
<polyline fill="none" stroke="black" points="2042,-110.5 2042,-146.5 "/>
<text text-anchor="middle" x="2112.5" y="-124.8" font-family="Times,serif" font-size="14.00">grad [[1], [1], [1]]</text>
</g>
<!-- 139907021047936&#45;&gt;139907021048128+ -->
<g id="edge11" class="edge">
<title>139907021047936&#45;&gt;139907021048128+</title>
<path fill="none" stroke="black" d="M2183.35,-128.5C2275.3,-128.5 2360.37,-128.5 2406.65,-128.5"/>
<polygon fill="black" stroke="black" points="2406.74,-132 2416.74,-128.5 2406.74,-125 2406.74,-132"/>
</g>
<!-- 139907021047936*&#45;&gt;139907021047936 -->
<g id="edge2" class="edge">
<title>139907021047936*&#45;&gt;139907021047936</title>
<path fill="none" stroke="black" d="M1188.26,-128.5C1229.97,-128.5 1316.45,-128.5 1411.64,-128.5"/>
<polygon fill="black" stroke="black" points="1411.78,-132 1421.78,-128.5 1411.78,-125 1411.78,-132"/>
</g>
<!-- 139907021048512 -->
<g id="node7" class="node">
<title>139907021048512</title>
<polygon fill="none" stroke="black" points="3394,-82.5 3394,-118.5 4114,-118.5 4114,-82.5 3394,-82.5"/>
<text text-anchor="middle" x="3404.5" y="-96.8" font-family="Times,serif" font-size="14.00"> </text>
<polyline fill="none" stroke="black" points="3415,-82.5 3415,-118.5 "/>
<text text-anchor="middle" x="3694" y="-96.8" font-family="Times,serif" font-size="14.00">data [[0.9119127101884241], [7.283529203805794], [13.7279947909859]]</text>
<polyline fill="none" stroke="black" points="3973,-82.5 3973,-118.5 "/>
<text text-anchor="middle" x="4043.5" y="-96.8" font-family="Times,serif" font-size="14.00">grad [[1], [1], [1]]</text>
</g>
<!-- 139907021048560ReLU -->
<g id="node10" class="node">
<title>139907021048560ReLU</title>
<ellipse fill="none" stroke="black" cx="4186.4" cy="-100.5" rx="36.29" ry="18"/>
<text text-anchor="middle" x="4186.4" y="-96.8" font-family="Times,serif" font-size="14.00">ReLU</text>
</g>
<!-- 139907021048512&#45;&gt;139907021048560ReLU -->
<g id="edge14" class="edge">
<title>139907021048512&#45;&gt;139907021048560ReLU</title>
<path fill="none" stroke="black" d="M4114.33,-100.5C4123.34,-100.5 4131.74,-100.5 4139.37,-100.5"/>
<polygon fill="black" stroke="black" points="4139.63,-104 4149.63,-100.5 4139.63,-97 4139.63,-104"/>
</g>
<!-- 139907021048512+&#45;&gt;139907021048512 -->
<g id="edge3" class="edge">
<title>139907021048512+&#45;&gt;139907021048512</title>
<path fill="none" stroke="black" d="M3358.02,-100.5C3365.35,-100.5 3374.02,-100.5 3383.78,-100.5"/>
<polygon fill="black" stroke="black" points="3383.89,-104 3393.89,-100.5 3383.89,-97 3383.89,-104"/>
</g>
<!-- 139907021048560 -->
<g id="node9" class="node">
<title>139907021048560</title>
<polygon fill="none" stroke="black" points="4258.79,-82.5 4258.79,-118.5 4978.79,-118.5 4978.79,-82.5 4258.79,-82.5"/>
<text text-anchor="middle" x="4269.29" y="-96.8" font-family="Times,serif" font-size="14.00"> </text>
<polyline fill="none" stroke="black" points="4279.79,-82.5 4279.79,-118.5 "/>
<text text-anchor="middle" x="4558.79" y="-96.8" font-family="Times,serif" font-size="14.00">data [[0.9119127101884241], [7.283529203805794], [13.7279947909859]]</text>
<polyline fill="none" stroke="black" points="4837.79,-82.5 4837.79,-118.5 "/>
<text text-anchor="middle" x="4908.29" y="-96.8" font-family="Times,serif" font-size="14.00">grad [[1], [1], [1]]</text>
</g>
<!-- 139907021048560ReLU&#45;&gt;139907021048560 -->
<g id="edge4" class="edge">
<title>139907021048560ReLU&#45;&gt;139907021048560</title>
<path fill="none" stroke="black" d="M4222.98,-100.5C4230.53,-100.5 4239.09,-100.5 4248.47,-100.5"/>
<polygon fill="black" stroke="black" points="4248.54,-104 4258.54,-100.5 4248.54,-97 4248.54,-104"/>
</g>
<!-- 139907021047552 -->
<g id="node11" class="node">
<title>139907021047552</title>
<polygon fill="none" stroke="black" points="1395,-55.5 1395,-91.5 2210,-91.5 2210,-55.5 1395,-55.5"/>
<text text-anchor="middle" x="1405.5" y="-69.8" font-family="Times,serif" font-size="14.00"> </text>
<polyline fill="none" stroke="black" points="1416,-55.5 1416,-91.5 "/>
<text text-anchor="middle" x="1715.5" y="-69.8" font-family="Times,serif" font-size="14.00">data [[&#45;0.5901079958448365], [&#45;0.7814232047574572], [&#45;0.8693137391598071]]</text>
<polyline fill="none" stroke="black" points="2015,-55.5 2015,-91.5 "/>
<text text-anchor="middle" x="2112.5" y="-69.8" font-family="Times,serif" font-size="14.00">grad [[&#45;2.0], [&#45;6.0], [&#45;9.0]]</text>
</g>
<!-- 139907021047552&#45;&gt;139907021048320* -->
<g id="edge12" class="edge">
<title>139907021047552&#45;&gt;139907021048320*</title>
<path fill="none" stroke="black" d="M2210.32,-73.5C2291.67,-73.5 2364.88,-73.5 2406.61,-73.5"/>
<polygon fill="black" stroke="black" points="2406.77,-77 2416.77,-73.5 2406.77,-70 2406.77,-77"/>
</g>
<!-- 139907021048128 -->
<g id="node12" class="node">
<title>139907021048128</title>
<polygon fill="none" stroke="black" points="2507,-110.5 2507,-146.5 3268,-146.5 3268,-110.5 2507,-110.5"/>
<text text-anchor="middle" x="2517.5" y="-124.8" font-family="Times,serif" font-size="14.00"> </text>
<polyline fill="none" stroke="black" points="2528,-110.5 2528,-146.5 "/>
<text text-anchor="middle" x="2827.5" y="-124.8" font-family="Times,serif" font-size="14.00">data [[&#45;0.26830328150124894], [2.5949899752610515], [5.9041711385476345]]</text>
<polyline fill="none" stroke="black" points="3127,-110.5 3127,-146.5 "/>
<text text-anchor="middle" x="3197.5" y="-124.8" font-family="Times,serif" font-size="14.00">grad [[1], [1], [1]]</text>
</g>
<!-- 139907021048128&#45;&gt;139907021048512+ -->
<g id="edge6" class="edge">
<title>139907021048128&#45;&gt;139907021048512+</title>
<path fill="none" stroke="black" d="M3172.48,-110.49C3220.93,-107.42 3264.94,-104.63 3294.05,-102.78"/>
<polygon fill="black" stroke="black" points="3294.32,-106.27 3304.08,-102.14 3293.88,-99.28 3294.32,-106.27"/>
</g>
<!-- 139907021048128+&#45;&gt;139907021048128 -->
<g id="edge5" class="edge">
<title>139907021048128+&#45;&gt;139907021048128</title>
<path fill="none" stroke="black" d="M2471.3,-128.5C2478.46,-128.5 2486.9,-128.5 2496.39,-128.5"/>
<polygon fill="black" stroke="black" points="2496.65,-132 2506.65,-128.5 2496.65,-125 2496.65,-132"/>
</g>
<!-- 139907021046112 -->
<g id="node14" class="node">
<title>139907021046112</title>
<polygon fill="none" stroke="black" points="0,-83.5 0,-119.5 1098,-119.5 1098,-83.5 0,-83.5"/>
<text text-anchor="middle" x="10.5" y="-97.8" font-family="Times,serif" font-size="14.00"> </text>
<polyline fill="none" stroke="black" points="21,-83.5 21,-119.5 "/>
<text text-anchor="middle" x="205.5" y="-97.8" font-family="Times,serif" font-size="14.00">data [[1.0, 2.0, 3.0], [4.0, 5.0, 6.0], [7.0, 8.0, 9.0]]</text>
<polyline fill="none" stroke="black" points="390,-83.5 390,-119.5 "/>
<text text-anchor="middle" x="744" y="-97.8" font-family="Times,serif" font-size="14.00">grad [[&#45;0.26830328150124894, 0, 0], [0.6487474938152629, 0, 0], [0.8434530197925192, 0, 0]]</text>
</g>
<!-- 139907021046112&#45;&gt;139907021047936* -->
<g id="edge10" class="edge">
<title>139907021046112&#45;&gt;139907021047936*</title>
<path fill="none" stroke="black" d="M956.88,-119.51C1025.9,-122.56 1087.06,-125.27 1123.79,-126.9"/>
<polygon fill="black" stroke="black" points="1123.79,-130.4 1133.94,-127.35 1124.1,-123.41 1123.79,-130.4"/>
</g>
<!-- 139907021046160 -->
<g id="node15" class="node">
<title>139907021046160</title>
<polygon fill="none" stroke="black" points="1224,-0.5 1224,-36.5 2381,-36.5 2381,-0.5 1224,-0.5"/>
<text text-anchor="middle" x="1234.5" y="-14.8" font-family="Times,serif" font-size="14.00"> </text>
<polyline fill="none" stroke="black" points="1245,-0.5 1245,-36.5 "/>
<text text-anchor="middle" x="1459" y="-14.8" font-family="Times,serif" font-size="14.00">data [[&#45;2.0, &#45;4.0, &#45;5.0], [&#45;6.0, &#45;7.0, &#45;8.0], [&#45;9.0, &#45;10.0, &#45;11.0]]</text>
<polyline fill="none" stroke="black" points="1673,-0.5 1673,-36.5 "/>
<text text-anchor="middle" x="2027" y="-14.8" font-family="Times,serif" font-size="14.00">grad [[&#45;0.5901079958448365, 0, 0], [&#45;0.7814232047574572, 0, 0], [&#45;0.8693137391598071, 0, 0]]</text>
</g>
<!-- 139907021046160&#45;&gt;139907021048320* -->
<g id="edge13" class="edge">
<title>139907021046160&#45;&gt;139907021048320*</title>
<path fill="none" stroke="black" d="M2339.75,-36.55C2353.69,-39.28 2367.46,-42.25 2381,-45.5 2392.14,-48.17 2403.74,-52.84 2413.85,-57.61"/>
<polygon fill="black" stroke="black" points="2412.51,-60.85 2423.03,-62.15 2415.61,-54.57 2412.51,-60.85"/>
</g>
</g>
</svg>
